<?xml version="1.0" standalone="no"?>
<!DOCTYPE svg PUBLIC "-//W3C//DTD SVG 20010904//EN"
 "http://www.w3.org/TR/2001/REC-SVG-20010904/DTD/svg10.dtd">
<svg version="1.0" xmlns="http://www.w3.org/2000/svg"
 width="400.000000pt" height="400.000000pt" viewBox="0 0 400.000000 400.000000"
 preserveAspectRatio="xMidYMid meet">
<metadata>
Created by potrace 1.14, written by Peter Selinger 2001-2017
</metadata>
<g transform="translate(0.000000,400.000000) scale(0.100000,-0.100000)"
fill="#000000" stroke="none">
<path d="M2630 3670 c0 -4 -10 -6 -22 -7 -61 -2 -108 -8 -108 -13 0 -4 -6 -7
-12 -8 -7 0 -30 -2 -50 -3 -21 -1 -35 -6 -32 -11 3 -5 0 -8 -7 -7 -28 5 -138
-25 -132 -35 4 -6 -2 -4 -12 4 -11 9 -16 10 -11 3 6 -12 -11 -18 -36 -14 -5 0
-8 -3 -8 -9 0 -5 -11 -10 -25 -10 -14 0 -25 -4 -25 -9 0 -9 -54 -34 -76 -34
-7 0 -11 -4 -9 -8 3 -4 -9 -12 -26 -18 -17 -6 -28 -14 -25 -19 3 -5 -1 -9 -9
-10 -8 -1 -22 -3 -30 -4 -8 -1 -15 -8 -15 -15 0 -8 -4 -11 -10 -8 -5 3 -10 2
-10 -3 0 -5 -13 -15 -30 -22 -16 -7 -28 -15 -26 -19 3 -4 -9 -13 -25 -20 -16
-7 -27 -17 -23 -22 3 -5 -4 -9 -16 -9 -12 0 -18 -4 -15 -10 3 -5 -1 -10 -10
-10 -9 0 -14 -3 -12 -7 4 -10 -40 -53 -47 -45 -3 3 -6 0 -6 -6 0 -6 -13 -24
-30 -40 -16 -17 -30 -35 -30 -40 0 -5 -7 -13 -16 -16 -8 -3 -12 -2 -9 4 3 6
-4 10 -17 10 -13 0 -30 6 -37 13 -9 7 -12 8 -7 0 4 -8 0 -8 -18 0 -13 7 -23
14 -21 18 3 3 -17 7 -43 8 -26 1 -48 6 -50 11 -5 13 -262 12 -262 -1 0 -6 -8
-5 -21 2 -15 8 -19 8 -15 0 5 -7 -2 -11 -18 -11 -14 0 -28 1 -29 3 -2 1 -12
-5 -22 -13 -11 -8 -16 -10 -12 -3 5 8 1 8 -18 0 -14 -7 -25 -16 -25 -20 0 -5
-4 -6 -9 -2 -5 3 -12 1 -16 -5 -4 -6 -10 -8 -15 -5 -5 3 -27 -6 -50 -20 -22
-14 -40 -23 -40 -20 0 3 -10 -3 -22 -15 -12 -11 -28 -20 -35 -20 -8 0 -12 -4
-9 -9 3 -5 -4 -11 -15 -14 -12 -3 -18 -10 -15 -16 4 -6 -2 -8 -14 -6 -11 2
-18 0 -15 -6 4 -5 2 -9 -4 -9 -13 0 -96 -83 -93 -92 1 -5 -7 -8 -19 -8 -11 0
-17 -5 -14 -10 3 -6 -1 -13 -9 -16 -9 -3 -16 -12 -16 -19 0 -7 -7 -15 -15 -19
-8 -3 -15 -12 -15 -21 0 -8 -4 -15 -10 -15 -5 0 -10 -6 -10 -14 0 -8 -9 -18
-20 -21 -11 -4 -18 -10 -15 -14 2 -5 -9 -26 -25 -47 -16 -21 -30 -45 -30 -51
0 -7 -7 -13 -16 -13 -8 0 -13 -4 -10 -8 3 -5 -6 -25 -20 -45 -14 -20 -22 -37
-18 -37 4 0 1 -8 -7 -17 -13 -17 -31 -46 -50 -83 -17 -32 -90 -198 -93 -210
-1 -3 -7 -14 -13 -25 -6 -11 -13 -31 -14 -45 -2 -14 -7 -27 -11 -30 -3 -3 -8
-18 -11 -35 -3 -16 -10 -43 -16 -59 -6 -16 -9 -31 -6 -34 2 -3 1 -10 -4 -16
-9 -12 -22 -86 -26 -149 -1 -20 -5 -40 -8 -43 -8 -8 13 -64 25 -64 5 0 6 -5 3
-10 -3 -6 0 -10 7 -10 7 0 33 -18 57 -40 25 -22 48 -40 53 -40 4 0 8 -7 8 -15
0 -9 6 -12 16 -8 10 4 17 -1 21 -16 3 -11 12 -21 19 -21 8 0 14 -4 14 -10 0
-5 7 -10 16 -10 8 0 13 -4 10 -9 -6 -9 22 -26 37 -22 5 1 6 -3 2 -9 -3 -6 -11
-8 -16 -5 -5 4 -9 2 -9 -3 0 -8 -63 -7 -88 3 -7 2 -10 0 -7 -5 4 -6 -5 -9 -19
-8 -15 1 -26 7 -26 13 0 7 -3 7 -8 0 -10 -14 -74 -17 -66 -3 4 7 2 8 -5 4 -6
-4 -9 -16 -6 -27 4 -11 2 -19 -5 -19 -6 0 -8 -5 -3 -12 4 -7 6 -21 5 -30 -2
-10 1 -18 5 -18 5 0 10 -21 11 -46 1 -25 5 -51 9 -57 4 -7 8 -16 8 -22 1 -12
12 -40 33 -85 8 -19 16 -37 16 -40 1 -3 11 -20 24 -38 13 -17 21 -32 18 -32
-7 0 18 -31 51 -66 13 -13 23 -28 23 -34 0 -5 7 -10 16 -10 8 0 13 -4 10 -8
-3 -5 4 -14 14 -22 10 -8 17 -17 14 -22 -3 -4 2 -8 11 -8 9 0 13 -4 10 -10 -3
-5 -1 -10 5 -10 6 0 8 -5 5 -10 -4 -6 -3 -10 2 -9 20 3 34 -2 28 -11 -3 -6 1
-10 9 -10 8 0 20 -9 26 -19 5 -11 19 -23 30 -26 11 -3 20 -13 20 -21 0 -8 4
-13 9 -10 5 3 14 -1 21 -9 7 -8 19 -15 27 -15 8 0 11 -4 8 -10 -3 -5 0 -10 8
-10 8 0 20 -7 27 -15 7 -8 16 -13 20 -10 4 3 13 -2 20 -9 6 -8 21 -13 32 -11
11 3 18 2 15 -2 -10 -9 25 -32 50 -33 12 0 25 -4 28 -10 3 -5 15 -10 26 -10
10 0 27 -4 37 -9 19 -11 73 -25 84 -23 5 1 8 -2 8 -7 0 -5 6 -8 13 -8 23 2 92
-16 106 -27 12 -9 13 -8 6 3 -6 11 -4 13 11 6 10 -5 40 -10 67 -11 26 -1 53
-6 60 -12 7 -6 59 -12 115 -13 63 -2 102 -7 102 -13 0 -7 3 -6 8 1 4 7 26 11
53 9 39 -2 57 -12 132 -69 48 -37 89 -67 93 -67 3 0 12 -7 21 -15 8 -8 19 -12
25 -9 6 4 8 3 5 -3 -5 -9 41 -38 52 -33 2 1 7 -3 10 -9 10 -15 143 -81 152
-76 4 3 10 -2 13 -11 4 -9 13 -14 21 -10 8 3 15 0 15 -5 0 -6 9 -9 20 -6 13 3
20 0 20 -10 0 -8 4 -12 8 -9 4 2 21 -1 37 -9 38 -16 98 -40 105 -40 3 0 11 -4
18 -8 6 -5 16 -6 20 -3 5 3 21 -2 36 -10 33 -16 56 -18 56 -4 0 6 7 10 15 10
8 0 15 5 15 10 0 6 7 10 16 10 8 0 12 5 9 10 -3 6 1 10 9 10 9 0 16 5 16 10 0
6 10 10 23 10 18 0 19 2 7 10 -13 8 -12 10 3 10 9 0 17 5 17 10 0 6 7 10 16
10 8 0 12 4 9 10 -3 5 3 10 15 10 12 0 18 4 15 10 -3 5 -1 10 5 10 6 0 8 5 4
12 -4 7 -3 8 5 4 6 -4 14 0 17 8 3 9 13 16 22 16 8 0 13 3 9 6 -7 7 17 34 31
34 5 0 17 11 26 25 9 14 21 23 26 20 5 -3 7 4 5 15 -2 11 1 20 8 20 7 0 28 18
47 41 19 23 48 54 63 70 16 16 26 33 22 39 -3 5 0 10 7 10 7 1 33 32 58 70 25
38 50 70 55 71 30 2 50 9 53 17 1 5 13 7 26 5 13 -3 27 0 30 6 4 6 18 11 31
11 13 0 25 4 27 10 2 5 15 11 31 12 15 1 27 5 27 8 0 3 17 12 37 19 21 8 43
20 51 28 7 7 18 11 23 7 5 -3 8 0 7 8 -2 8 4 12 16 10 11 -2 15 1 11 7 -3 7 3
11 15 11 12 0 18 5 15 10 -3 6 1 10 10 10 9 0 13 5 10 10 -4 6 -3 10 2 9 21
-4 33 2 33 16 0 9 6 12 17 8 9 -4 14 -2 10 3 -3 6 8 21 24 35 16 13 44 45 60
72 17 26 35 47 41 47 5 0 6 5 3 10 -3 6 -1 10 5 10 6 0 8 5 5 10 -3 6 -1 10 4
10 6 0 10 3 9 8 -1 4 5 21 12 37 7 17 14 33 15 38 2 4 3 8 5 10 4 5 12 43 14
64 0 11 4 19 9 16 6 -4 11 19 8 39 0 4 4 32 10 63 15 83 17 108 7 128 -5 10
-5 17 1 17 5 0 8 7 7 16 -3 22 -67 50 -143 61 -18 3 -33 9 -33 15 0 5 -4 6
-10 3 -5 -3 -10 1 -10 9 0 9 3 15 8 15 19 -3 33 2 28 10 -3 5 0 9 7 8 49 -1
87 4 82 13 -3 5 3 10 15 10 28 0 45 19 44 50 0 14 2 29 4 34 10 18 8 112 -2
125 -8 11 -8 13 2 7 8 -5 12 2 13 26 3 102 1 204 -6 288 -4 52 -8 103 -9 113
0 9 -3 17 -6 17 -3 0 -6 10 -7 23 -5 75 -12 110 -24 118 -8 5 -9 9 -3 9 13 0
-25 152 -62 244 -14 36 -25 68 -24 71 1 4 -7 14 -18 23 -10 9 -17 22 -16 27 2
6 -6 21 -17 35 -11 14 -17 19 -13 11 5 -9 3 -12 -4 -7 -9 5 -9 13 -1 28 7 14
7 18 0 14 -5 -4 -17 6 -25 22 -9 17 -29 42 -45 58 -16 15 -29 30 -27 33 1 3
-17 25 -41 48 -24 24 -43 40 -43 36 0 -3 -16 10 -35 30 -20 21 -40 37 -44 37
-4 0 -13 10 -20 23 -9 18 -11 18 -6 2 5 -19 4 -19 -9 -2 -7 9 -19 17 -25 17
-7 0 -9 5 -6 10 3 6 0 10 -8 10 -8 0 -20 7 -27 15 -7 8 -16 13 -20 10 -5 -3
-10 -1 -12 4 -1 5 -10 11 -18 13 -8 2 -17 6 -20 10 -3 3 -12 8 -20 10 -8 2
-21 10 -28 18 -12 13 -13 13 -7 0 4 -8 0 -7 -9 4 -9 11 -22 16 -31 12 -9 -3
-13 -2 -10 4 3 6 1 10 -5 10 -22 0 -4 23 20 27 13 2 28 9 32 16 4 6 8 9 8 5 0
-4 30 4 67 18 38 13 76 24 86 24 10 0 15 5 12 10 -5 9 23 15 48 11 4 0 7 6 7
15 0 10 -5 14 -16 10 -8 -3 -12 -2 -9 4 4 6 -10 10 -34 10 -22 0 -43 5 -46 10
-4 6 -14 10 -23 9 -10 -1 -19 0 -22 1 -11 4 -47 11 -75 15 -16 3 -41 8 -55 12
-39 10 -44 10 -59 -1 -11 -8 -13 -8 -7 2 6 10 -15 13 -106 11 -64 -1 -119 -7
-127 -13 -11 -8 -13 -8 -8 0 4 8 -2 11 -18 10 -14 0 -25 -3 -25 -6z"/>
</g>
</svg>
